# xmcd CD database file
#
# Track frame offsets:
#	150
#	18138
#	34551
#	51199
#	70747
#	91423
#	110723
#	132406
#	153566
#	170017
#	187328
#	207562
#	227662
#	252259
#	269860
#
# Disc length: 3893 seconds
#
# Revision: 0
# Processed by: cddbd v1.5.2PL0 Copyright (c) Steve Scherf et al.
# Submitted via: jetAudio 7
#
DISCID=e00f330f
DTITLE=빅마마 - BIG MAMA 5
DYEAR=1900
DGENRE=K-Pop
TTITLE0=Fire
TTITLE1=Beautiful Day
TTITLE2=기다리다 미쳐
TTITLE3=태우다
TTITLE4=트랙 5
TTITLE5=트랙 6
TTITLE6=트랙 7
TTITLE7=트랙 8
TTITLE8=트랙 9
TTITLE9=트랙 10
TTITLE10=트랙 11
TTITLE11=트랙 12
TTITLE12=트랙 13
TTITLE13=트랙 14
TTITLE14=트랙 15
EXTD=
EXTT0=
EXTT1=
EXTT2=
EXTT3=
EXTT4=
EXTT5=
EXTT6=
EXTT7=
EXTT8=
EXTT9=
EXTT10=
EXTT11=
EXTT12=
EXTT13=
EXTT14=
PLAYORDER=
